<svg width="447" height="287" viewBox="0 0 447 287" fill="none" xmlns="http://www.w3.org/2000/svg">
<g opacity="0.1">
<circle cx="2.57143" cy="2.57143" r="2.57143" fill="#0A043C"/>
<circle cx="2.57143" cy="163.143" r="2.57143" fill="#0A043C"/>
<circle cx="2.57143" cy="82.8571" r="2.57143" fill="#0A043C"/>
<circle cx="2.57143" cy="243.429" r="2.57143" fill="#0A043C"/>
<circle cx="2.57143" cy="42.7143" r="2.57143" fill="#0A043C"/>
<circle cx="2.57143" cy="203.286" r="2.57143" fill="#0A043C"/>
<circle cx="2.57143" cy="123" r="2.57143" fill="#0A043C"/>
<circle cx="2.57143" cy="283.571" r="2.57143" fill="#0A043C"/>
<circle cx="243.429" cy="2.57143" r="2.57143" fill="#0A043C"/>
<circle cx="243.429" cy="163.143" r="2.57143" fill="#0A043C"/>
<circle cx="243.429" cy="82.8571" r="2.57143" fill="#0A043C"/>
<circle cx="243.429" cy="243.429" r="2.57143" fill="#0A043C"/>
<circle cx="243.429" cy="42.7143" r="2.57143" fill="#0A043C"/>
<circle cx="243.429" cy="203.286" r="2.57143" fill="#0A043C"/>
<circle cx="243.429" cy="123" r="2.57143" fill="#0A043C"/>
<circle cx="243.429" cy="283.571" r="2.57143" fill="#0A043C"/>
<circle cx="123" cy="2.57143" r="2.57143" fill="#0A043C"/>
<circle cx="123" cy="163.143" r="2.57143" fill="#0A043C"/>
<circle cx="123" cy="82.8571" r="2.57143" fill="#0A043C"/>
<circle cx="123" cy="243.429" r="2.57143" fill="#0A043C"/>
<circle cx="123" cy="42.7143" r="2.57143" fill="#0A043C"/>
<circle cx="123" cy="203.286" r="2.57143" fill="#0A043C"/>
<circle cx="123" cy="123" r="2.57143" fill="#0A043C"/>
<circle cx="123" cy="283.571" r="2.57143" fill="#0A043C"/>
<circle cx="363.857" cy="2.57143" r="2.57143" fill="#0A043C"/>
<circle cx="363.857" cy="163.143" r="2.57143" fill="#0A043C"/>
<circle cx="363.857" cy="82.8571" r="2.57143" fill="#0A043C"/>
<circle cx="363.857" cy="243.429" r="2.57143" fill="#0A043C"/>
<circle cx="363.857" cy="42.7143" r="2.57143" fill="#0A043C"/>
<circle cx="363.857" cy="203.286" r="2.57143" fill="#0A043C"/>
<circle cx="363.857" cy="123" r="2.57143" fill="#0A043C"/>
<circle cx="363.857" cy="283.571" r="2.57143" fill="#0A043C"/>
<circle cx="42.7143" cy="2.57143" r="2.57143" fill="#0A043C"/>
<circle cx="42.7143" cy="163.143" r="2.57143" fill="#0A043C"/>
<circle cx="42.7143" cy="82.8571" r="2.57143" fill="#0A043C"/>
<circle cx="42.7143" cy="243.429" r="2.57143" fill="#0A043C"/>
<circle cx="42.7143" cy="42.7143" r="2.57143" fill="#0A043C"/>
<circle cx="42.7143" cy="203.286" r="2.57143" fill="#0A043C"/>
<circle cx="42.7143" cy="123" r="2.57143" fill="#0A043C"/>
<circle cx="42.7143" cy="283.571" r="2.57143" fill="#0A043C"/>
<circle cx="283.571" cy="2.57143" r="2.57143" fill="#0A043C"/>
<circle cx="283.571" cy="163.143" r="2.57143" fill="#0A043C"/>
<circle cx="283.571" cy="82.8571" r="2.57143" fill="#0A043C"/>
<circle cx="283.571" cy="243.429" r="2.57143" fill="#0A043C"/>
<circle cx="283.571" cy="42.7143" r="2.57143" fill="#0A043C"/>
<circle cx="283.571" cy="203.286" r="2.57143" fill="#0A043C"/>
<circle cx="283.571" cy="123" r="2.57143" fill="#0A043C"/>
<circle cx="283.571" cy="283.571" r="2.57143" fill="#0A043C"/>
<circle cx="163.143" cy="2.57143" r="2.57143" fill="#0A043C"/>
<circle cx="163.143" cy="163.143" r="2.57143" fill="#0A043C"/>
<circle cx="163.143" cy="82.8571" r="2.57143" fill="#0A043C"/>
<circle cx="163.143" cy="243.429" r="2.57143" fill="#0A043C"/>
<circle cx="163.143" cy="42.7143" r="2.57143" fill="#0A043C"/>
<circle cx="163.143" cy="203.286" r="2.57143" fill="#0A043C"/>
<circle cx="163.143" cy="123" r="2.57143" fill="#0A043C"/>
<circle cx="163.143" cy="283.571" r="2.57143" fill="#0A043C"/>
<circle cx="404" cy="2.57143" r="2.57143" fill="#0A043C"/>
<circle cx="404" cy="163.143" r="2.57143" fill="#0A043C"/>
<circle cx="404" cy="82.8571" r="2.57143" fill="#0A043C"/>
<circle cx="404" cy="243.429" r="2.57143" fill="#0A043C"/>
<circle cx="404" cy="42.7143" r="2.57143" fill="#0A043C"/>
<circle cx="404" cy="203.286" r="2.57143" fill="#0A043C"/>
<circle cx="404" cy="123" r="2.57143" fill="#0A043C"/>
<circle cx="404" cy="283.571" r="2.57143" fill="#0A043C"/>
<circle cx="82.8571" cy="2.57143" r="2.57143" fill="#0A043C"/>
<circle cx="82.8571" cy="163.143" r="2.57143" fill="#0A043C"/>
<circle cx="82.8571" cy="82.8571" r="2.57143" fill="#0A043C"/>
<circle cx="82.8571" cy="243.429" r="2.57143" fill="#0A043C"/>
<circle cx="82.8571" cy="42.7143" r="2.57143" fill="#0A043C"/>
<circle cx="82.8571" cy="203.286" r="2.57143" fill="#0A043C"/>
<circle cx="82.8571" cy="123" r="2.57143" fill="#0A043C"/>
<circle cx="82.8571" cy="283.571" r="2.57143" fill="#0A043C"/>
<circle cx="323.714" cy="2.57143" r="2.57143" fill="#0A043C"/>
<circle cx="323.714" cy="163.143" r="2.57143" fill="#0A043C"/>
<circle cx="323.714" cy="82.8571" r="2.57143" fill="#0A043C"/>
<circle cx="323.714" cy="243.429" r="2.57143" fill="#0A043C"/>
<circle cx="323.714" cy="42.7143" r="2.57143" fill="#0A043C"/>
<circle cx="323.714" cy="203.286" r="2.57143" fill="#0A043C"/>
<circle cx="323.714" cy="123" r="2.57143" fill="#0A043C"/>
<circle cx="323.714" cy="283.571" r="2.57143" fill="#0A043C"/>
<circle cx="203.286" cy="2.57143" r="2.57143" fill="#0A043C"/>
<circle cx="203.286" cy="163.143" r="2.57143" fill="#0A043C"/>
<circle cx="203.286" cy="82.8571" r="2.57143" fill="#0A043C"/>
<circle cx="203.286" cy="243.429" r="2.57143" fill="#0A043C"/>
<circle cx="203.286" cy="42.7143" r="2.57143" fill="#0A043C"/>
<circle cx="203.286" cy="203.286" r="2.57143" fill="#0A043C"/>
<circle cx="203.286" cy="123" r="2.57143" fill="#0A043C"/>
<circle cx="203.286" cy="283.571" r="2.57143" fill="#0A043C"/>
<circle cx="444.143" cy="2.57143" r="2.57143" fill="#0A043C"/>
<circle cx="444.143" cy="163.143" r="2.57143" fill="#0A043C"/>
<circle cx="444.143" cy="82.8571" r="2.57143" fill="#0A043C"/>
<circle cx="444.143" cy="243.429" r="2.57143" fill="#0A043C"/>
<circle cx="444.143" cy="42.7143" r="2.57143" fill="#0A043C"/>
<circle cx="444.143" cy="203.286" r="2.57143" fill="#0A043C"/>
<circle cx="444.143" cy="123" r="2.57143" fill="#0A043C"/>
<circle cx="444.143" cy="283.571" r="2.57143" fill="#0A043C"/>
</g>
</svg>
