<svg width="236" height="35" viewBox="0 0 236 35" fill="none" xmlns="http://www.w3.org/2000/svg">
<path d="M56.064 9.372C58.9573 9.372 61.1787 9.88533 62.728 10.912C64.2773 11.92 65.052 13.5813 65.052 15.896C65.052 18.2293 64.268 19.9187 62.7 20.964C61.132 21.9907 58.892 22.504 55.98 22.504H54.608V29H50.24V9.876C51.192 9.68933 52.2 9.55867 53.264 9.484C54.328 9.40933 55.2613 9.372 56.064 9.372ZM56.344 13.096C56.0267 13.096 55.7093 13.1053 55.392 13.124C55.0933 13.1427 54.832 13.1613 54.608 13.18V18.78H55.98C57.492 18.78 58.6307 18.5747 59.396 18.164C60.1613 17.7533 60.544 16.988 60.544 15.868C60.544 15.3267 60.4413 14.8787 60.236 14.524C60.0493 14.1693 59.7693 13.8893 59.396 13.684C59.0413 13.46 58.6027 13.3107 58.08 13.236C57.5573 13.1427 56.9787 13.096 56.344 13.096ZM71.9275 19.284C71.9275 20.236 72.0395 21.0947 72.2635 21.86C72.5062 22.6253 72.8422 23.288 73.2715 23.848C73.7195 24.3893 74.2609 24.8093 74.8955 25.108C75.5302 25.4067 76.2582 25.556 77.0795 25.556C77.8822 25.556 78.6009 25.4067 79.2355 25.108C79.8889 24.8093 80.4302 24.3893 80.8595 23.848C81.3075 23.288 81.6435 22.6253 81.8675 21.86C82.1102 21.0947 82.2315 20.236 82.2315 19.284C82.2315 18.332 82.1102 17.4733 81.8675 16.708C81.6435 15.924 81.3075 15.2613 80.8595 14.72C80.4302 14.16 79.8889 13.7307 79.2355 13.432C78.6009 13.1333 77.8822 12.984 77.0795 12.984C76.2582 12.984 75.5302 13.1427 74.8955 13.46C74.2609 13.7587 73.7195 14.188 73.2715 14.748C72.8422 15.2893 72.5062 15.952 72.2635 16.736C72.0395 17.5013 71.9275 18.3507 71.9275 19.284ZM86.7395 19.284C86.7395 20.9453 86.4875 22.4107 85.9835 23.68C85.4982 24.9307 84.8262 25.9853 83.9675 26.844C83.1089 27.684 82.0822 28.3187 80.8875 28.748C79.7115 29.1773 78.4422 29.392 77.0795 29.392C75.7542 29.392 74.5035 29.1773 73.3275 28.748C72.1515 28.3187 71.1249 27.684 70.2475 26.844C69.3702 25.9853 68.6795 24.9307 68.1755 23.68C67.6715 22.4107 67.4195 20.9453 67.4195 19.284C67.4195 17.6227 67.6809 16.1667 68.2035 14.916C68.7262 13.6467 69.4262 12.5827 70.3035 11.724C71.1995 10.8653 72.2262 10.2213 73.3835 9.792C74.5595 9.36267 75.7915 9.148 77.0795 9.148C78.4049 9.148 79.6555 9.36267 80.8315 9.792C82.0075 10.2213 83.0342 10.8653 83.9115 11.724C84.7889 12.5827 85.4795 13.6467 85.9835 14.916C86.4875 16.1667 86.7395 17.6227 86.7395 19.284ZM103.127 11.668C103.351 12.4333 103.594 13.3013 103.855 14.272C104.135 15.224 104.425 16.2133 104.723 17.24C105.041 18.2667 105.358 19.2933 105.675 20.32C105.993 21.3467 106.301 22.2987 106.599 23.176C106.842 22.224 107.085 21.188 107.327 20.068C107.589 18.948 107.831 17.7907 108.055 16.596C108.279 15.4013 108.494 14.216 108.699 13.04C108.923 11.8453 109.129 10.6973 109.315 9.596H113.851C113.198 12.844 112.442 16.1387 111.583 19.48C110.743 22.8213 109.829 25.9947 108.839 29H104.835C104.182 27.208 103.547 25.332 102.931 23.372C102.315 21.3933 101.709 19.4147 101.111 17.436C100.514 19.4147 99.9165 21.3933 99.3192 23.372C98.7219 25.332 98.0965 27.208 97.4432 29H93.4392C92.4499 25.9947 91.5259 22.8213 90.6672 19.48C89.8272 16.1387 89.0805 12.844 88.4272 9.596H93.1592C93.3459 10.6973 93.5512 11.8453 93.7752 13.04C93.9992 14.216 94.2325 15.4013 94.4752 16.596C94.7179 17.7907 94.9605 18.948 95.2032 20.068C95.4645 21.188 95.7259 22.224 95.9872 23.176C96.3232 22.2613 96.6499 21.2907 96.9672 20.264C97.2845 19.2373 97.5925 18.2107 97.8912 17.184C98.1899 16.1573 98.4605 15.168 98.7032 14.216C98.9645 13.264 99.1979 12.4147 99.4032 11.668H103.127ZM116.658 29V9.596H129.762V13.264H121.026V17.072H128.782V20.656H121.026V25.332H130.406V29H116.658ZM139.322 9.372C142.234 9.372 144.465 9.89467 146.014 10.94C147.564 11.9667 148.338 13.572 148.338 15.756C148.338 17.1187 148.021 18.2293 147.386 19.088C146.77 19.928 145.874 20.5907 144.698 21.076C145.09 21.5613 145.501 22.1213 145.93 22.756C146.36 23.372 146.78 24.0253 147.19 24.716C147.62 25.388 148.03 26.0973 148.422 26.844C148.814 27.572 149.178 28.2907 149.514 29H144.614C144.26 28.3653 143.896 27.7213 143.522 27.068C143.168 26.4147 142.794 25.78 142.402 25.164C142.029 24.548 141.656 23.9693 141.282 23.428C140.909 22.868 140.536 22.364 140.162 21.916H138.006V29H133.638V9.876C134.59 9.68933 135.57 9.55867 136.578 9.484C137.605 9.40933 138.52 9.372 139.322 9.372ZM139.574 13.096C139.257 13.096 138.968 13.1053 138.706 13.124C138.464 13.1427 138.23 13.1613 138.006 13.18V18.444H139.238C140.881 18.444 142.057 18.2387 142.766 17.828C143.476 17.4173 143.83 16.7173 143.83 15.728C143.83 14.776 143.466 14.104 142.738 13.712C142.029 13.3013 140.974 13.096 139.574 13.096ZM172.005 25.248V29H159.041V9.596H163.409V25.248H172.005ZM177.939 19.284C177.939 20.236 178.051 21.0947 178.275 21.86C178.518 22.6253 178.854 23.288 179.283 23.848C179.731 24.3893 180.273 24.8093 180.907 25.108C181.542 25.4067 182.27 25.556 183.091 25.556C183.894 25.556 184.613 25.4067 185.247 25.108C185.901 24.8093 186.442 24.3893 186.871 23.848C187.319 23.288 187.655 22.6253 187.879 21.86C188.122 21.0947 188.243 20.236 188.243 19.284C188.243 18.332 188.122 17.4733 187.879 16.708C187.655 15.924 187.319 15.2613 186.871 14.72C186.442 14.16 185.901 13.7307 185.247 13.432C184.613 13.1333 183.894 12.984 183.091 12.984C182.27 12.984 181.542 13.1427 180.907 13.46C180.273 13.7587 179.731 14.188 179.283 14.748C178.854 15.2893 178.518 15.952 178.275 16.736C178.051 17.5013 177.939 18.3507 177.939 19.284ZM192.751 19.284C192.751 20.9453 192.499 22.4107 191.995 23.68C191.51 24.9307 190.838 25.9853 189.979 26.844C189.121 27.684 188.094 28.3187 186.899 28.748C185.723 29.1773 184.454 29.392 183.091 29.392C181.766 29.392 180.515 29.1773 179.339 28.748C178.163 28.3187 177.137 27.684 176.259 26.844C175.382 25.9853 174.691 24.9307 174.187 23.68C173.683 22.4107 173.431 20.9453 173.431 19.284C173.431 17.6227 173.693 16.1667 174.215 14.916C174.738 13.6467 175.438 12.5827 176.315 11.724C177.211 10.8653 178.238 10.2213 179.395 9.792C180.571 9.36267 181.803 9.148 183.091 9.148C184.417 9.148 185.667 9.36267 186.843 9.792C188.019 10.2213 189.046 10.8653 189.923 11.724C190.801 12.5827 191.491 13.6467 191.995 14.916C192.499 16.1667 192.751 17.6227 192.751 19.284ZM205.856 12.956C203.822 12.956 202.347 13.5253 201.432 14.664C200.536 15.784 200.088 17.324 200.088 19.284C200.088 20.236 200.2 21.104 200.424 21.888C200.648 22.6533 200.984 23.316 201.432 23.876C201.88 24.436 202.44 24.8747 203.112 25.192C203.784 25.4907 204.568 25.64 205.464 25.64C205.95 25.64 206.36 25.6307 206.696 25.612C207.051 25.5933 207.359 25.556 207.62 25.5V18.752H211.988V28.356C211.466 28.5613 210.626 28.776 209.468 29C208.311 29.2427 206.883 29.364 205.184 29.364C203.728 29.364 202.403 29.14 201.208 28.692C200.032 28.244 199.024 27.5907 198.184 26.732C197.344 25.8733 196.691 24.8187 196.224 23.568C195.776 22.3173 195.552 20.8893 195.552 19.284C195.552 17.66 195.804 16.2227 196.308 14.972C196.812 13.7213 197.503 12.6667 198.38 11.808C199.258 10.9307 200.284 10.268 201.46 9.82C202.655 9.372 203.924 9.148 205.268 9.148C206.183 9.148 207.004 9.21333 207.732 9.344C208.479 9.456 209.114 9.596 209.636 9.764C210.178 9.91333 210.616 10.072 210.952 10.24C211.307 10.408 211.559 10.5387 211.708 10.632L210.448 14.132C209.851 13.8147 209.16 13.544 208.376 13.32C207.611 13.0773 206.771 12.956 205.856 12.956ZM219.721 19.284C219.721 20.236 219.833 21.0947 220.057 21.86C220.299 22.6253 220.635 23.288 221.065 23.848C221.513 24.3893 222.054 24.8093 222.689 25.108C223.323 25.4067 224.051 25.556 224.873 25.556C225.675 25.556 226.394 25.4067 227.029 25.108C227.682 24.8093 228.223 24.3893 228.653 23.848C229.101 23.288 229.437 22.6253 229.661 21.86C229.903 21.0947 230.025 20.236 230.025 19.284C230.025 18.332 229.903 17.4733 229.661 16.708C229.437 15.924 229.101 15.2613 228.653 14.72C228.223 14.16 227.682 13.7307 227.029 13.432C226.394 13.1333 225.675 12.984 224.873 12.984C224.051 12.984 223.323 13.1427 222.689 13.46C222.054 13.7587 221.513 14.188 221.065 14.748C220.635 15.2893 220.299 15.952 220.057 16.736C219.833 17.5013 219.721 18.3507 219.721 19.284ZM234.533 19.284C234.533 20.9453 234.281 22.4107 233.777 23.68C233.291 24.9307 232.619 25.9853 231.761 26.844C230.902 27.684 229.875 28.3187 228.681 28.748C227.505 29.1773 226.235 29.392 224.873 29.392C223.547 29.392 222.297 29.1773 221.121 28.748C219.945 28.3187 218.918 27.684 218.041 26.844C217.163 25.9853 216.473 24.9307 215.969 23.68C215.465 22.4107 215.213 20.9453 215.213 19.284C215.213 17.6227 215.474 16.1667 215.997 14.916C216.519 13.6467 217.219 12.5827 218.097 11.724C218.993 10.8653 220.019 10.2213 221.177 9.792C222.353 9.36267 223.585 9.148 224.873 9.148C226.198 9.148 227.449 9.36267 228.625 9.792C229.801 10.2213 230.827 10.8653 231.705 11.724C232.582 12.5827 233.273 13.6467 233.777 14.916C234.281 16.1667 234.533 17.6227 234.533 19.284Z" fill="#B0B6C4"/>
<rect width="13" height="13" fill="#C4C4C4"/>
<rect x="23" width="13" height="13" fill="#C4C4C4"/>
<rect x="10" y="19" width="13" height="13" fill="#C4C4C4"/>
</svg>
