<svg width="194" height="46" viewBox="0 0 194 46" fill="none" xmlns="http://www.w3.org/2000/svg">
<path d="M0 40C0 17.9086 17.9086 0 40 0H46C46 25.4051 25.4051 46 0 46V40Z" fill="#C4C4C4"/>
<path d="M63.392 19.596C63.728 20.212 64.1107 20.9773 64.54 21.892C64.988 22.788 65.4453 23.768 65.912 24.832C66.3973 25.8773 66.8733 26.9507 67.34 28.052C67.8067 29.1533 68.2453 30.1893 68.656 31.16C69.0667 30.1893 69.5053 29.1533 69.972 28.052C70.4387 26.9507 70.9053 25.8773 71.372 24.832C71.8573 23.768 72.3147 22.788 72.744 21.892C73.192 20.9773 73.584 20.212 73.92 19.596H77.896C78.0827 20.884 78.2507 22.3307 78.4 23.936C78.568 25.5227 78.708 27.184 78.82 28.92C78.9507 30.6373 79.0627 32.364 79.156 34.1C79.268 35.836 79.3613 37.4693 79.436 39H75.18C75.124 37.1147 75.0493 35.0613 74.956 32.84C74.8627 30.6187 74.7227 28.3787 74.536 26.12C74.2 26.904 73.8267 27.772 73.416 28.724C73.0053 29.676 72.5947 30.628 72.184 31.58C71.792 32.532 71.4093 33.4467 71.036 34.324C70.6627 35.1827 70.3453 35.92 70.084 36.536H67.032C66.7707 35.92 66.4533 35.1827 66.08 34.324C65.7067 33.4467 65.3147 32.532 64.904 31.58C64.512 30.628 64.1107 29.676 63.7 28.724C63.2893 27.772 62.916 26.904 62.58 26.12C62.3933 28.3787 62.2533 30.6187 62.16 32.84C62.0667 35.0613 61.992 37.1147 61.936 39H57.68C57.7547 37.4693 57.8387 35.836 57.932 34.1C58.044 32.364 58.156 30.6373 58.268 28.92C58.3987 27.184 58.5387 25.5227 58.688 23.936C58.856 22.3307 59.0333 20.884 59.22 19.596H63.392ZM87.2609 39H83.0889V24.272H87.2609V39ZM87.6529 20.016C87.6529 20.7813 87.4009 21.388 86.8969 21.836C86.4116 22.2653 85.8329 22.48 85.1609 22.48C84.4889 22.48 83.9009 22.2653 83.3969 21.836C82.9116 21.388 82.6689 20.7813 82.6689 20.016C82.6689 19.2507 82.9116 18.6533 83.3969 18.224C83.9009 17.776 84.4889 17.552 85.1609 17.552C85.8329 17.552 86.4116 17.776 86.8969 18.224C87.4009 18.6533 87.6529 19.2507 87.6529 20.016ZM102.607 39C102.065 37.9173 101.468 36.8253 100.815 35.724C100.18 34.604 99.4427 33.4653 98.6027 32.308C98.3413 32.644 98.0053 33.1107 97.5947 33.708C97.2027 34.3053 96.8013 34.94 96.3907 35.612C95.9987 36.284 95.6253 36.928 95.2707 37.544C94.916 38.16 94.6547 38.6453 94.4867 39H89.5027C90.324 37.488 91.276 35.9013 92.3587 34.24C93.46 32.5787 94.6827 30.8147 96.0267 28.948L89.7827 19.596H95.0747L98.8547 25.644L102.551 19.596H107.535L101.375 29.004C102.943 31.0387 104.259 32.924 105.323 34.66C106.387 36.3773 107.227 37.824 107.843 39H102.607ZM130.048 35.248V39H117.084V19.596H121.452V35.248H130.048ZM135.982 29.284C135.982 30.236 136.094 31.0947 136.318 31.86C136.561 32.6253 136.897 33.288 137.326 33.848C137.774 34.3893 138.316 34.8093 138.95 35.108C139.585 35.4067 140.313 35.556 141.134 35.556C141.937 35.556 142.656 35.4067 143.29 35.108C143.944 34.8093 144.485 34.3893 144.914 33.848C145.362 33.288 145.698 32.6253 145.922 31.86C146.165 31.0947 146.286 30.236 146.286 29.284C146.286 28.332 146.165 27.4733 145.922 26.708C145.698 25.924 145.362 25.2613 144.914 24.72C144.485 24.16 143.944 23.7307 143.29 23.432C142.656 23.1333 141.937 22.984 141.134 22.984C140.313 22.984 139.585 23.1427 138.95 23.46C138.316 23.7587 137.774 24.188 137.326 24.748C136.897 25.2893 136.561 25.952 136.318 26.736C136.094 27.5013 135.982 28.3507 135.982 29.284ZM150.794 29.284C150.794 30.9453 150.542 32.4107 150.038 33.68C149.553 34.9307 148.881 35.9853 148.022 36.844C147.164 37.684 146.137 38.3187 144.942 38.748C143.766 39.1773 142.497 39.392 141.134 39.392C139.809 39.392 138.558 39.1773 137.382 38.748C136.206 38.3187 135.18 37.684 134.302 36.844C133.425 35.9853 132.734 34.9307 132.23 33.68C131.726 32.4107 131.474 30.9453 131.474 29.284C131.474 27.6227 131.736 26.1667 132.258 24.916C132.781 23.6467 133.481 22.5827 134.358 21.724C135.254 20.8653 136.281 20.2213 137.438 19.792C138.614 19.3627 139.846 19.148 141.134 19.148C142.46 19.148 143.71 19.3627 144.886 19.792C146.062 20.2213 147.089 20.8653 147.966 21.724C148.844 22.5827 149.534 23.6467 150.038 24.916C150.542 26.1667 150.794 27.6227 150.794 29.284ZM163.899 22.956C161.865 22.956 160.39 23.5253 159.475 24.664C158.579 25.784 158.131 27.324 158.131 29.284C158.131 30.236 158.243 31.104 158.467 31.888C158.691 32.6533 159.027 33.316 159.475 33.876C159.923 34.436 160.483 34.8747 161.155 35.192C161.827 35.4907 162.611 35.64 163.507 35.64C163.993 35.64 164.403 35.6307 164.739 35.612C165.094 35.5933 165.402 35.556 165.663 35.5V28.752H170.031V38.356C169.509 38.5613 168.669 38.776 167.511 39C166.354 39.2427 164.926 39.364 163.227 39.364C161.771 39.364 160.446 39.14 159.251 38.692C158.075 38.244 157.067 37.5907 156.227 36.732C155.387 35.8733 154.734 34.8187 154.267 33.568C153.819 32.3173 153.595 30.8893 153.595 29.284C153.595 27.66 153.847 26.2227 154.351 24.972C154.855 23.7213 155.546 22.6667 156.423 21.808C157.301 20.9307 158.327 20.268 159.503 19.82C160.698 19.372 161.967 19.148 163.311 19.148C164.226 19.148 165.047 19.2133 165.775 19.344C166.522 19.456 167.157 19.596 167.679 19.764C168.221 19.9133 168.659 20.072 168.995 20.24C169.35 20.408 169.602 20.5387 169.751 20.632L168.491 24.132C167.894 23.8147 167.203 23.544 166.419 23.32C165.654 23.0773 164.814 22.956 163.899 22.956ZM177.763 29.284C177.763 30.236 177.875 31.0947 178.099 31.86C178.342 32.6253 178.678 33.288 179.107 33.848C179.555 34.3893 180.097 34.8093 180.731 35.108C181.366 35.4067 182.094 35.556 182.915 35.556C183.718 35.556 184.437 35.4067 185.071 35.108C185.725 34.8093 186.266 34.3893 186.695 33.848C187.143 33.288 187.479 32.6253 187.703 31.86C187.946 31.0947 188.067 30.236 188.067 29.284C188.067 28.332 187.946 27.4733 187.703 26.708C187.479 25.924 187.143 25.2613 186.695 24.72C186.266 24.16 185.725 23.7307 185.071 23.432C184.437 23.1333 183.718 22.984 182.915 22.984C182.094 22.984 181.366 23.1427 180.731 23.46C180.097 23.7587 179.555 24.188 179.107 24.748C178.678 25.2893 178.342 25.952 178.099 26.736C177.875 27.5013 177.763 28.3507 177.763 29.284ZM192.575 29.284C192.575 30.9453 192.323 32.4107 191.819 33.68C191.334 34.9307 190.662 35.9853 189.803 36.844C188.945 37.684 187.918 38.3187 186.723 38.748C185.547 39.1773 184.278 39.392 182.915 39.392C181.59 39.392 180.339 39.1773 179.163 38.748C177.987 38.3187 176.961 37.684 176.083 36.844C175.206 35.9853 174.515 34.9307 174.011 33.68C173.507 32.4107 173.255 30.9453 173.255 29.284C173.255 27.6227 173.517 26.1667 174.039 24.916C174.562 23.6467 175.262 22.5827 176.139 21.724C177.035 20.8653 178.062 20.2213 179.219 19.792C180.395 19.3627 181.627 19.148 182.915 19.148C184.241 19.148 185.491 19.3627 186.667 19.792C187.843 20.2213 188.87 20.8653 189.747 21.724C190.625 22.5827 191.315 23.6467 191.819 24.916C192.323 26.1667 192.575 27.6227 192.575 29.284Z" fill="#B0B6C4"/>
</svg>
