<svg width="257" height="37" viewBox="0 0 257 37" fill="none" xmlns="http://www.w3.org/2000/svg">
<path d="M54.064 11.3718C56.9573 11.3718 59.1787 11.8851 60.728 12.9118C62.2773 13.9198 63.052 15.5811 63.052 17.8958C63.052 20.2291 62.268 21.9184 60.7 22.9638C59.132 23.9904 56.892 24.5038 53.98 24.5038H52.608V30.9998H48.24V11.8758C49.192 11.6891 50.2 11.5584 51.264 11.4838C52.328 11.4091 53.2613 11.3718 54.064 11.3718ZM54.344 15.0958C54.0267 15.0958 53.7093 15.1051 53.392 15.1238C53.0933 15.1424 52.832 15.1611 52.608 15.1798V20.7798H53.98C55.492 20.7798 56.6307 20.5744 57.396 20.1638C58.1613 19.7531 58.544 18.9878 58.544 17.8678C58.544 17.3264 58.4413 16.8784 58.236 16.5238C58.0493 16.1691 57.7693 15.8891 57.396 15.6838C57.0413 15.4598 56.6027 15.3104 56.08 15.2358C55.5573 15.1424 54.9787 15.0958 54.344 15.0958ZM69.9275 21.2838C69.9275 22.2358 70.0395 23.0944 70.2635 23.8598C70.5062 24.6251 70.8422 25.2878 71.2715 25.8478C71.7195 26.3891 72.2609 26.8091 72.8955 27.1078C73.5302 27.4064 74.2582 27.5558 75.0795 27.5558C75.8822 27.5558 76.6009 27.4064 77.2355 27.1078C77.8889 26.8091 78.4302 26.3891 78.8595 25.8478C79.3075 25.2878 79.6435 24.6251 79.8675 23.8598C80.1102 23.0944 80.2315 22.2358 80.2315 21.2838C80.2315 20.3318 80.1102 19.4731 79.8675 18.7078C79.6435 17.9238 79.3075 17.2611 78.8595 16.7198C78.4302 16.1598 77.8889 15.7304 77.2355 15.4318C76.6009 15.1331 75.8822 14.9838 75.0795 14.9838C74.2582 14.9838 73.5302 15.1424 72.8955 15.4598C72.2609 15.7584 71.7195 16.1878 71.2715 16.7478C70.8422 17.2891 70.5062 17.9518 70.2635 18.7358C70.0395 19.5011 69.9275 20.3504 69.9275 21.2838ZM84.7395 21.2838C84.7395 22.9451 84.4875 24.4104 83.9835 25.6798C83.4982 26.9304 82.8262 27.9851 81.9675 28.8438C81.1089 29.6838 80.0822 30.3184 78.8875 30.7478C77.7115 31.1771 76.4422 31.3918 75.0795 31.3918C73.7542 31.3918 72.5035 31.1771 71.3275 30.7478C70.1515 30.3184 69.1249 29.6838 68.2475 28.8438C67.3702 27.9851 66.6795 26.9304 66.1755 25.6798C65.6715 24.4104 65.4195 22.9451 65.4195 21.2838C65.4195 19.6224 65.6809 18.1664 66.2035 16.9158C66.7262 15.6464 67.4262 14.5824 68.3035 13.7238C69.1995 12.8651 70.2262 12.2211 71.3835 11.7918C72.5595 11.3624 73.7915 11.1478 75.0795 11.1478C76.4049 11.1478 77.6555 11.3624 78.8315 11.7918C80.0075 12.2211 81.0342 12.8651 81.9115 13.7238C82.7889 14.5824 83.4795 15.6464 83.9835 16.9158C84.4875 18.1664 84.7395 19.6224 84.7395 21.2838ZM101.127 13.6678C101.351 14.4331 101.594 15.3011 101.855 16.2718C102.135 17.2238 102.425 18.2131 102.723 19.2398C103.041 20.2664 103.358 21.2931 103.675 22.3198C103.993 23.3464 104.301 24.2984 104.599 25.1758C104.842 24.2238 105.085 23.1878 105.327 22.0678C105.589 20.9478 105.831 19.7904 106.055 18.5958C106.279 17.4011 106.494 16.2158 106.699 15.0398C106.923 13.8451 107.129 12.6971 107.315 11.5958H111.851C111.198 14.8438 110.442 18.1384 109.583 21.4798C108.743 24.8211 107.829 27.9944 106.839 30.9998H102.835C102.182 29.2078 101.547 27.3318 100.931 25.3718C100.315 23.3931 99.7085 21.4144 99.1112 19.4358C98.5139 21.4144 97.9165 23.3931 97.3192 25.3718C96.7219 27.3318 96.0965 29.2078 95.4432 30.9998H91.4392C90.4499 27.9944 89.5259 24.8211 88.6672 21.4798C87.8272 18.1384 87.0805 14.8438 86.4272 11.5958H91.1592C91.3459 12.6971 91.5512 13.8451 91.7752 15.0398C91.9992 16.2158 92.2325 17.4011 92.4752 18.5958C92.7179 19.7904 92.9605 20.9478 93.2032 22.0678C93.4645 23.1878 93.7259 24.2238 93.9872 25.1758C94.3232 24.2611 94.6499 23.2904 94.9672 22.2638C95.2845 21.2371 95.5925 20.2104 95.8912 19.1838C96.1899 18.1571 96.4605 17.1678 96.7032 16.2158C96.9645 15.2638 97.1979 14.4144 97.4032 13.6678H101.127ZM114.658 30.9998V11.5958H127.762V15.2638H119.026V19.0718H126.782V22.6558H119.026V27.3318H128.406V30.9998H114.658ZM137.322 11.3718C140.234 11.3718 142.465 11.8944 144.014 12.9398C145.564 13.9664 146.338 15.5718 146.338 17.7558C146.338 19.1184 146.021 20.2291 145.386 21.0878C144.77 21.9278 143.874 22.5904 142.698 23.0758C143.09 23.5611 143.501 24.1211 143.93 24.7558C144.36 25.3718 144.78 26.0251 145.19 26.7158C145.62 27.3878 146.03 28.0971 146.422 28.8438C146.814 29.5718 147.178 30.2904 147.514 30.9998H142.614C142.26 30.3651 141.896 29.7211 141.522 29.0678C141.168 28.4144 140.794 27.7798 140.402 27.1638C140.029 26.5478 139.656 25.9691 139.282 25.4278C138.909 24.8678 138.536 24.3638 138.162 23.9158H136.006V30.9998H131.638V11.8758C132.59 11.6891 133.57 11.5584 134.578 11.4838C135.605 11.4091 136.52 11.3718 137.322 11.3718ZM137.574 15.0958C137.257 15.0958 136.968 15.1051 136.706 15.1238C136.464 15.1424 136.23 15.1611 136.006 15.1798V20.4438H137.238C138.881 20.4438 140.057 20.2384 140.766 19.8278C141.476 19.4171 141.83 18.7171 141.83 17.7278C141.83 16.7758 141.466 16.1038 140.738 15.7118C140.029 15.3011 138.974 15.0958 137.574 15.0958ZM170.005 27.2478V30.9998H157.041V11.5958H161.409V27.2478H170.005ZM175.939 21.2838C175.939 22.2358 176.051 23.0944 176.275 23.8598C176.518 24.6251 176.854 25.2878 177.283 25.8478C177.731 26.3891 178.273 26.8091 178.907 27.1078C179.542 27.4064 180.27 27.5558 181.091 27.5558C181.894 27.5558 182.613 27.4064 183.247 27.1078C183.901 26.8091 184.442 26.3891 184.871 25.8478C185.319 25.2878 185.655 24.6251 185.879 23.8598C186.122 23.0944 186.243 22.2358 186.243 21.2838C186.243 20.3318 186.122 19.4731 185.879 18.7078C185.655 17.9238 185.319 17.2611 184.871 16.7198C184.442 16.1598 183.901 15.7304 183.247 15.4318C182.613 15.1331 181.894 14.9838 181.091 14.9838C180.27 14.9838 179.542 15.1424 178.907 15.4598C178.273 15.7584 177.731 16.1878 177.283 16.7478C176.854 17.2891 176.518 17.9518 176.275 18.7358C176.051 19.5011 175.939 20.3504 175.939 21.2838ZM190.751 21.2838C190.751 22.9451 190.499 24.4104 189.995 25.6798C189.51 26.9304 188.838 27.9851 187.979 28.8438C187.121 29.6838 186.094 30.3184 184.899 30.7478C183.723 31.1771 182.454 31.3918 181.091 31.3918C179.766 31.3918 178.515 31.1771 177.339 30.7478C176.163 30.3184 175.137 29.6838 174.259 28.8438C173.382 27.9851 172.691 26.9304 172.187 25.6798C171.683 24.4104 171.431 22.9451 171.431 21.2838C171.431 19.6224 171.693 18.1664 172.215 16.9158C172.738 15.6464 173.438 14.5824 174.315 13.7238C175.211 12.8651 176.238 12.2211 177.395 11.7918C178.571 11.3624 179.803 11.1478 181.091 11.1478C182.417 11.1478 183.667 11.3624 184.843 11.7918C186.019 12.2211 187.046 12.8651 187.923 13.7238C188.801 14.5824 189.491 15.6464 189.995 16.9158C190.499 18.1664 190.751 19.6224 190.751 21.2838ZM203.856 14.9558C201.822 14.9558 200.347 15.5251 199.432 16.6638C198.536 17.7838 198.088 19.3238 198.088 21.2838C198.088 22.2358 198.2 23.1038 198.424 23.8878C198.648 24.6531 198.984 25.3158 199.432 25.8758C199.88 26.4358 200.44 26.8744 201.112 27.1918C201.784 27.4904 202.568 27.6398 203.464 27.6398C203.95 27.6398 204.36 27.6304 204.696 27.6118C205.051 27.5931 205.359 27.5558 205.62 27.4998V20.7518H209.988V30.3558C209.466 30.5611 208.626 30.7758 207.468 30.9998C206.311 31.2424 204.883 31.3638 203.184 31.3638C201.728 31.3638 200.403 31.1398 199.208 30.6918C198.032 30.2438 197.024 29.5904 196.184 28.7318C195.344 27.8731 194.691 26.8184 194.224 25.5678C193.776 24.3171 193.552 22.8891 193.552 21.2838C193.552 19.6598 193.804 18.2224 194.308 16.9718C194.812 15.7211 195.503 14.6664 196.38 13.8078C197.258 12.9304 198.284 12.2678 199.46 11.8198C200.655 11.3718 201.924 11.1478 203.268 11.1478C204.183 11.1478 205.004 11.2131 205.732 11.3438C206.479 11.4558 207.114 11.5958 207.636 11.7638C208.178 11.9131 208.616 12.0718 208.952 12.2398C209.307 12.4078 209.559 12.5384 209.708 12.6318L208.448 16.1318C207.851 15.8144 207.16 15.5438 206.376 15.3198C205.611 15.0771 204.771 14.9558 203.856 14.9558ZM217.721 21.2838C217.721 22.2358 217.833 23.0944 218.057 23.8598C218.299 24.6251 218.635 25.2878 219.065 25.8478C219.513 26.3891 220.054 26.8091 220.689 27.1078C221.323 27.4064 222.051 27.5558 222.873 27.5558C223.675 27.5558 224.394 27.4064 225.029 27.1078C225.682 26.8091 226.223 26.3891 226.653 25.8478C227.101 25.2878 227.437 24.6251 227.661 23.8598C227.903 23.0944 228.025 22.2358 228.025 21.2838C228.025 20.3318 227.903 19.4731 227.661 18.7078C227.437 17.9238 227.101 17.2611 226.653 16.7198C226.223 16.1598 225.682 15.7304 225.029 15.4318C224.394 15.1331 223.675 14.9838 222.873 14.9838C222.051 14.9838 221.323 15.1424 220.689 15.4598C220.054 15.7584 219.513 16.1878 219.065 16.7478C218.635 17.2891 218.299 17.9518 218.057 18.7358C217.833 19.5011 217.721 20.3504 217.721 21.2838ZM232.533 21.2838C232.533 22.9451 232.281 24.4104 231.777 25.6798C231.291 26.9304 230.619 27.9851 229.761 28.8438C228.902 29.6838 227.875 30.3184 226.681 30.7478C225.505 31.1771 224.235 31.3918 222.873 31.3918C221.547 31.3918 220.297 31.1771 219.121 30.7478C217.945 30.3184 216.918 29.6838 216.041 28.8438C215.163 27.9851 214.473 26.9304 213.969 25.6798C213.465 24.4104 213.213 22.9451 213.213 21.2838C213.213 19.6224 213.474 18.1664 213.997 16.9158C214.519 15.6464 215.219 14.5824 216.097 13.7238C216.993 12.8651 218.019 12.2211 219.177 11.7918C220.353 11.3624 221.585 11.1478 222.873 11.1478C224.198 11.1478 225.449 11.3624 226.625 11.7918C227.801 12.2211 228.827 12.8651 229.705 13.7238C230.582 14.5824 231.273 15.6464 231.777 16.9158C232.281 18.1664 232.533 19.6224 232.533 21.2838ZM254.548 16.6918C254.548 17.4011 254.408 18.0824 254.128 18.7358C253.848 19.3891 253.484 20.0238 253.036 20.6398C252.588 21.2371 252.084 21.8158 251.524 22.3758C250.964 22.9358 250.413 23.4678 249.872 23.9718C249.592 24.2331 249.284 24.5318 248.948 24.8678C248.631 25.1851 248.323 25.5118 248.024 25.8478C247.725 26.1838 247.455 26.5011 247.212 26.7998C246.988 27.0798 246.848 27.3131 246.792 27.4998H255.136V30.9998H242.2C242.163 30.7944 242.144 30.5331 242.144 30.2158C242.144 29.8984 242.144 29.6744 242.144 29.5438C242.144 28.6478 242.284 27.8264 242.564 27.0798C242.863 26.3331 243.245 25.6424 243.712 25.0078C244.179 24.3544 244.701 23.7478 245.28 23.1878C245.877 22.6278 246.465 22.0678 247.044 21.5078C247.492 21.0784 247.912 20.6771 248.304 20.3038C248.696 19.9118 249.041 19.5384 249.34 19.1838C249.639 18.8104 249.872 18.4464 250.04 18.0918C250.208 17.7184 250.292 17.3451 250.292 16.9718C250.292 16.1504 250.059 15.5718 249.592 15.2358C249.125 14.8998 248.547 14.7318 247.856 14.7318C247.352 14.7318 246.876 14.8158 246.428 14.9838C245.999 15.1331 245.597 15.3198 245.224 15.5438C244.869 15.7491 244.561 15.9638 244.3 16.1878C244.039 16.3931 243.843 16.5611 243.712 16.6918L241.64 13.7798C242.461 13.0144 243.413 12.3891 244.496 11.9038C245.597 11.3998 246.773 11.1478 248.024 11.1478C249.163 11.1478 250.143 11.2784 250.964 11.5398C251.785 11.8011 252.457 12.1744 252.98 12.6598C253.521 13.1264 253.913 13.7051 254.156 14.3958C254.417 15.0678 254.548 15.8331 254.548 16.6918Z" fill="#B0B6C4"/>
<rect y="36" width="13" height="13" transform="rotate(-90 0 36)" fill="#C4C4C4"/>
<rect y="13" width="13" height="13" transform="rotate(-90 0 13)" fill="#C4C4C4"/>
<rect x="19" y="26" width="13" height="13" transform="rotate(-90 19 26)" fill="#C4C4C4"/>
</svg>
