<svg width="234" height="46" viewBox="0 0 234 46" fill="none" xmlns="http://www.w3.org/2000/svg">
<path d="M0 40C0 17.9086 17.9086 0 40 0H46V46H0V40Z" fill="#C4C4C4"/>
<path d="M69.392 19.596C69.728 20.212 70.1107 20.9773 70.54 21.892C70.988 22.788 71.4453 23.768 71.912 24.832C72.3973 25.8773 72.8733 26.9507 73.34 28.052C73.8067 29.1533 74.2453 30.1893 74.656 31.16C75.0667 30.1893 75.5053 29.1533 75.972 28.052C76.4387 26.9507 76.9053 25.8773 77.372 24.832C77.8573 23.768 78.3147 22.788 78.744 21.892C79.192 20.9773 79.584 20.212 79.92 19.596H83.896C84.0827 20.884 84.2507 22.3307 84.4 23.936C84.568 25.5227 84.708 27.184 84.82 28.92C84.9507 30.6373 85.0627 32.364 85.156 34.1C85.268 35.836 85.3613 37.4693 85.436 39H81.18C81.124 37.1147 81.0493 35.0613 80.956 32.84C80.8627 30.6187 80.7227 28.3787 80.536 26.12C80.2 26.904 79.8267 27.772 79.416 28.724C79.0053 29.676 78.5947 30.628 78.184 31.58C77.792 32.532 77.4093 33.4467 77.036 34.324C76.6627 35.1827 76.3453 35.92 76.084 36.536H73.032C72.7707 35.92 72.4533 35.1827 72.08 34.324C71.7067 33.4467 71.3147 32.532 70.904 31.58C70.512 30.628 70.1107 29.676 69.7 28.724C69.2893 27.772 68.916 26.904 68.58 26.12C68.3933 28.3787 68.2533 30.6187 68.16 32.84C68.0667 35.0613 67.992 37.1147 67.936 39H63.68C63.7547 37.4693 63.8387 35.836 63.932 34.1C64.044 32.364 64.156 30.6373 64.268 28.92C64.3987 27.184 64.5387 25.5227 64.688 23.936C64.856 22.3307 65.0333 20.884 65.22 19.596H69.392ZM102.361 39C102.156 38.328 101.922 37.6373 101.661 36.928C101.418 36.2187 101.176 35.5093 100.933 34.8H93.3729C93.1302 35.5093 92.8782 36.2187 92.6169 36.928C92.3742 37.6373 92.1502 38.328 91.9449 39H87.4089C88.1369 36.9093 88.8276 34.9773 89.4809 33.204C90.1342 31.4307 90.7689 29.76 91.3849 28.192C92.0196 26.624 92.6356 25.14 93.2329 23.74C93.8489 22.3213 94.4836 20.94 95.1369 19.596H99.3089C99.9436 20.94 100.569 22.3213 101.185 23.74C101.801 25.14 102.417 26.624 103.033 28.192C103.668 29.76 104.312 31.4307 104.965 33.204C105.618 34.9773 106.309 36.9093 107.037 39H102.361ZM97.1249 23.992C97.0316 24.272 96.8916 24.6547 96.7049 25.14C96.5182 25.6253 96.3036 26.1853 96.0609 26.82C95.8182 27.4547 95.5476 28.1547 95.2489 28.92C94.9689 29.6853 94.6796 30.488 94.3809 31.328H99.8969C99.5982 30.488 99.3089 29.6853 99.0289 28.92C98.7489 28.1547 98.4782 27.4547 98.2169 26.82C97.9742 26.1853 97.7596 25.6253 97.5729 25.14C97.3862 24.6547 97.2369 24.272 97.1249 23.992ZM121.732 39C121.19 37.9173 120.593 36.8253 119.94 35.724C119.305 34.604 118.568 33.4653 117.728 32.308C117.466 32.644 117.13 33.1107 116.72 33.708C116.328 34.3053 115.926 34.94 115.516 35.612C115.124 36.284 114.75 36.928 114.396 37.544C114.041 38.16 113.78 38.6453 113.612 39H108.628C109.449 37.488 110.401 35.9013 111.484 34.24C112.585 32.5787 113.808 30.8147 115.152 28.948L108.908 19.596H114.2L117.98 25.644L121.676 19.596H126.66L120.5 29.004C122.068 31.0387 123.384 32.924 124.448 34.66C125.512 36.3773 126.352 37.824 126.968 39H121.732ZM149.173 35.248V39H136.209V19.596H140.577V35.248H149.173ZM165.853 39C165.648 38.328 165.414 37.6373 165.153 36.928C164.91 36.2187 164.668 35.5093 164.425 34.8H156.865C156.622 35.5093 156.37 36.2187 156.109 36.928C155.866 37.6373 155.642 38.328 155.437 39H150.901C151.629 36.9093 152.32 34.9773 152.973 33.204C153.626 31.4307 154.261 29.76 154.877 28.192C155.512 26.624 156.128 25.14 156.725 23.74C157.341 22.3213 157.976 20.94 158.629 19.596H162.801C163.436 20.94 164.061 22.3213 164.677 23.74C165.293 25.14 165.909 26.624 166.525 28.192C167.16 29.76 167.804 31.4307 168.457 33.204C169.11 34.9773 169.801 36.9093 170.529 39H165.853ZM160.617 23.992C160.524 24.272 160.384 24.6547 160.197 25.14C160.01 25.6253 159.796 26.1853 159.553 26.82C159.31 27.4547 159.04 28.1547 158.741 28.92C158.461 29.6853 158.172 30.488 157.873 31.328H163.389C163.09 30.488 162.801 29.6853 162.521 28.92C162.241 28.1547 161.97 27.4547 161.709 26.82C161.466 26.1853 161.252 25.6253 161.065 25.14C160.878 24.6547 160.729 24.272 160.617 23.992ZM175.998 29.284C175.998 30.236 176.11 31.0947 176.334 31.86C176.577 32.6253 176.913 33.288 177.342 33.848C177.79 34.3893 178.331 34.8093 178.966 35.108C179.601 35.4067 180.329 35.556 181.15 35.556C181.953 35.556 182.671 35.4067 183.306 35.108C183.959 34.8093 184.501 34.3893 184.93 33.848C185.378 33.288 185.714 32.6253 185.938 31.86C186.181 31.0947 186.302 30.236 186.302 29.284C186.302 28.332 186.181 27.4733 185.938 26.708C185.714 25.924 185.378 25.2613 184.93 24.72C184.501 24.16 183.959 23.7307 183.306 23.432C182.671 23.1333 181.953 22.984 181.15 22.984C180.329 22.984 179.601 23.1427 178.966 23.46C178.331 23.7587 177.79 24.188 177.342 24.748C176.913 25.2893 176.577 25.952 176.334 26.736C176.11 27.5013 175.998 28.3507 175.998 29.284ZM190.81 29.284C190.81 30.9453 190.558 32.4107 190.054 33.68C189.569 34.9307 188.897 35.9853 188.038 36.844C187.179 37.684 186.153 38.3187 184.958 38.748C183.782 39.1773 182.513 39.392 181.15 39.392C179.825 39.392 178.574 39.1773 177.398 38.748C176.222 38.3187 175.195 37.684 174.318 36.844C173.441 35.9853 172.75 34.9307 172.246 33.68C171.742 32.4107 171.49 30.9453 171.49 29.284C171.49 27.6227 171.751 26.1667 172.274 24.916C172.797 23.6467 173.497 22.5827 174.374 21.724C175.27 20.8653 176.297 20.2213 177.454 19.792C178.63 19.3627 179.862 19.148 181.15 19.148C182.475 19.148 183.726 19.3627 184.902 19.792C186.078 20.2213 187.105 20.8653 187.982 21.724C188.859 22.5827 189.55 23.6467 190.054 24.916C190.558 26.1667 190.81 27.6227 190.81 29.284ZM203.915 22.956C201.88 22.956 200.406 23.5253 199.491 24.664C198.595 25.784 198.147 27.324 198.147 29.284C198.147 30.236 198.259 31.104 198.483 31.888C198.707 32.6533 199.043 33.316 199.491 33.876C199.939 34.436 200.499 34.8747 201.171 35.192C201.843 35.4907 202.627 35.64 203.523 35.64C204.008 35.64 204.419 35.6307 204.755 35.612C205.11 35.5933 205.418 35.556 205.679 35.5V28.752H210.047V38.356C209.524 38.5613 208.684 38.776 207.527 39C206.37 39.2427 204.942 39.364 203.243 39.364C201.787 39.364 200.462 39.14 199.267 38.692C198.091 38.244 197.083 37.5907 196.243 36.732C195.403 35.8733 194.75 34.8187 194.283 33.568C193.835 32.3173 193.611 30.8893 193.611 29.284C193.611 27.66 193.863 26.2227 194.367 24.972C194.871 23.7213 195.562 22.6667 196.439 21.808C197.316 20.9307 198.343 20.268 199.519 19.82C200.714 19.372 201.983 19.148 203.327 19.148C204.242 19.148 205.063 19.2133 205.791 19.344C206.538 19.456 207.172 19.596 207.695 19.764C208.236 19.9133 208.675 20.072 209.011 20.24C209.366 20.408 209.618 20.5387 209.767 20.632L208.507 24.132C207.91 23.8147 207.219 23.544 206.435 23.32C205.67 23.0773 204.83 22.956 203.915 22.956ZM217.779 29.284C217.779 30.236 217.891 31.0947 218.115 31.86C218.358 32.6253 218.694 33.288 219.123 33.848C219.571 34.3893 220.112 34.8093 220.747 35.108C221.382 35.4067 222.11 35.556 222.931 35.556C223.734 35.556 224.452 35.4067 225.087 35.108C225.74 34.8093 226.282 34.3893 226.711 33.848C227.159 33.288 227.495 32.6253 227.719 31.86C227.962 31.0947 228.083 30.236 228.083 29.284C228.083 28.332 227.962 27.4733 227.719 26.708C227.495 25.924 227.159 25.2613 226.711 24.72C226.282 24.16 225.74 23.7307 225.087 23.432C224.452 23.1333 223.734 22.984 222.931 22.984C222.11 22.984 221.382 23.1427 220.747 23.46C220.112 23.7587 219.571 24.188 219.123 24.748C218.694 25.2893 218.358 25.952 218.115 26.736C217.891 27.5013 217.779 28.3507 217.779 29.284ZM232.591 29.284C232.591 30.9453 232.339 32.4107 231.835 33.68C231.35 34.9307 230.678 35.9853 229.819 36.844C228.96 37.684 227.934 38.3187 226.739 38.748C225.563 39.1773 224.294 39.392 222.931 39.392C221.606 39.392 220.355 39.1773 219.179 38.748C218.003 38.3187 216.976 37.684 216.099 36.844C215.222 35.9853 214.531 34.9307 214.027 33.68C213.523 32.4107 213.271 30.9453 213.271 29.284C213.271 27.6227 213.532 26.1667 214.055 24.916C214.578 23.6467 215.278 22.5827 216.155 21.724C217.051 20.8653 218.078 20.2213 219.235 19.792C220.411 19.3627 221.643 19.148 222.931 19.148C224.256 19.148 225.507 19.3627 226.683 19.792C227.859 20.2213 228.886 20.8653 229.763 21.724C230.64 22.5827 231.331 23.6467 231.835 24.916C232.339 26.1667 232.591 27.6227 232.591 29.284Z" fill="#B0B6C4"/>
</svg>
