<svg width="188" height="42" viewBox="0 0 188 42" fill="none" xmlns="http://www.w3.org/2000/svg">
<path d="M54.522 16.624C54.522 17.6813 54.2793 18.652 53.794 19.536C53.3087 20.4027 52.5633 21.1047 51.558 21.642C50.5527 22.1793 49.3047 22.448 47.814 22.448H45.058V29H40.612V10.748H47.814C49.27 10.748 50.5007 10.9993 51.506 11.502C52.5113 12.0047 53.2653 12.698 53.768 13.582C54.2707 14.466 54.522 15.48 54.522 16.624ZM47.476 18.912C48.3253 18.912 48.958 18.7127 49.374 18.314C49.79 17.9153 49.998 17.352 49.998 16.624C49.998 15.896 49.79 15.3327 49.374 14.934C48.958 14.5353 48.3253 14.336 47.476 14.336H45.058V18.912H47.476ZM56.2098 21.72C56.2098 20.2293 56.4871 18.9207 57.0418 17.794C57.6138 16.6673 58.3851 15.8007 59.3558 15.194C60.3264 14.5873 61.4098 14.284 62.6058 14.284C63.6284 14.284 64.5211 14.492 65.2838 14.908C66.0638 15.324 66.6618 15.87 67.0778 16.546V14.492H71.5238V29H67.0778V26.946C66.6444 27.622 66.0378 28.168 65.2578 28.584C64.4951 29 63.6024 29.208 62.5798 29.208C61.4011 29.208 60.3264 28.9047 59.3558 28.298C58.3851 27.674 57.6138 26.7987 57.0418 25.672C56.4871 24.528 56.2098 23.2107 56.2098 21.72ZM67.0778 21.746C67.0778 20.6367 66.7658 19.7613 66.1418 19.12C65.5351 18.4787 64.7898 18.158 63.9058 18.158C63.0218 18.158 62.2678 18.4787 61.6438 19.12C61.0371 19.744 60.7338 20.6107 60.7338 21.72C60.7338 22.8293 61.0371 23.7133 61.6438 24.372C62.2678 25.0133 63.0218 25.334 63.9058 25.334C64.7898 25.334 65.5351 25.0133 66.1418 24.372C66.7658 23.7307 67.0778 22.8553 67.0778 21.746ZM93.5094 14.336C95.312 14.336 96.742 14.882 97.7994 15.974C98.874 17.066 99.4114 18.5827 99.4114 20.524V29H94.9914V21.122C94.9914 20.186 94.74 19.4667 94.2374 18.964C93.752 18.444 93.076 18.184 92.2094 18.184C91.3427 18.184 90.658 18.444 90.1554 18.964C89.67 19.4667 89.4274 20.186 89.4274 21.122V29H85.0074V21.122C85.0074 20.186 84.756 19.4667 84.2534 18.964C83.768 18.444 83.092 18.184 82.2254 18.184C81.3587 18.184 80.674 18.444 80.1714 18.964C79.686 19.4667 79.4434 20.186 79.4434 21.122V29H74.9974V14.492H79.4434V16.312C79.894 15.7053 80.4834 15.2287 81.2114 14.882C81.9394 14.518 82.7627 14.336 83.6814 14.336C84.7734 14.336 85.744 14.57 86.5934 15.038C87.46 15.506 88.136 16.1733 88.6214 17.04C89.124 16.2427 89.8087 15.5927 90.6754 15.09C91.542 14.5873 92.4867 14.336 93.5094 14.336ZM116.454 21.512C116.454 21.928 116.428 22.3613 116.376 22.812H106.314C106.383 23.7133 106.669 24.4067 107.172 24.892C107.692 25.36 108.325 25.594 109.07 25.594C110.179 25.594 110.951 25.126 111.384 24.19H116.116C115.873 25.1433 115.431 26.0013 114.79 26.764C114.166 27.5267 113.377 28.1247 112.424 28.558C111.471 28.9913 110.405 29.208 109.226 29.208C107.805 29.208 106.539 28.9047 105.43 28.298C104.321 27.6913 103.454 26.8247 102.83 25.698C102.206 24.5713 101.894 23.254 101.894 21.746C101.894 20.238 102.197 18.9207 102.804 17.794C103.428 16.6673 104.295 15.8007 105.404 15.194C106.513 14.5873 107.787 14.284 109.226 14.284C110.63 14.284 111.878 14.5787 112.97 15.168C114.062 15.7573 114.911 16.598 115.518 17.69C116.142 18.782 116.454 20.056 116.454 21.512ZM111.904 20.342C111.904 19.5793 111.644 18.9727 111.124 18.522C110.604 18.0713 109.954 17.846 109.174 17.846C108.429 17.846 107.796 18.0627 107.276 18.496C106.773 18.9293 106.461 19.5447 106.34 20.342H111.904ZM133.383 14.492V29H128.937V27.024C128.486 27.6653 127.871 28.1853 127.091 28.584C126.328 28.9653 125.479 29.156 124.543 29.156C123.433 29.156 122.454 28.9133 121.605 28.428C120.755 27.9253 120.097 27.206 119.629 26.27C119.161 25.334 118.927 24.2333 118.927 22.968V14.492H123.347V22.37C123.347 23.3407 123.598 24.0947 124.101 24.632C124.603 25.1693 125.279 25.438 126.129 25.438C126.995 25.438 127.68 25.1693 128.183 24.632C128.685 24.0947 128.937 23.3407 128.937 22.37V14.492H133.383ZM145.673 14.336C147.372 14.336 148.724 14.8907 149.729 16C150.752 17.092 151.263 18.6 151.263 20.524V29H146.843V21.122C146.843 20.1513 146.592 19.3973 146.089 18.86C145.587 18.3227 144.911 18.054 144.061 18.054C143.212 18.054 142.536 18.3227 142.033 18.86C141.531 19.3973 141.279 20.1513 141.279 21.122V29H136.833V14.492H141.279V16.416C141.73 15.7747 142.337 15.272 143.099 14.908C143.862 14.5267 144.72 14.336 145.673 14.336ZM162.696 25.23V29H160.434C158.822 29 157.565 28.61 156.664 27.83C155.763 27.0327 155.312 25.7413 155.312 23.956V18.184H153.544V14.492H155.312V10.956H159.758V14.492H162.67V18.184H159.758V24.008C159.758 24.4413 159.862 24.7533 160.07 24.944C160.278 25.1347 160.625 25.23 161.11 25.23H162.696ZM179.106 21.512C179.106 21.928 179.08 22.3613 179.028 22.812H168.966C169.035 23.7133 169.321 24.4067 169.824 24.892C170.344 25.36 170.976 25.594 171.722 25.594C172.831 25.594 173.602 25.126 174.036 24.19H178.768C178.525 25.1433 178.083 26.0013 177.442 26.764C176.818 27.5267 176.029 28.1247 175.076 28.558C174.122 28.9913 173.056 29.208 171.878 29.208C170.456 29.208 169.191 28.9047 168.082 28.298C166.972 27.6913 166.106 26.8247 165.482 25.698C164.858 24.5713 164.546 23.254 164.546 21.746C164.546 20.238 164.849 18.9207 165.456 17.794C166.08 16.6673 166.946 15.8007 168.056 15.194C169.165 14.5873 170.439 14.284 171.878 14.284C173.282 14.284 174.53 14.5787 175.622 15.168C176.714 15.7573 177.563 16.598 178.17 17.69C178.794 18.782 179.106 20.056 179.106 21.512ZM174.556 20.342C174.556 19.5793 174.296 18.9727 173.776 18.522C173.256 18.0713 172.606 17.846 171.826 17.846C171.08 17.846 170.448 18.0627 169.928 18.496C169.425 18.9293 169.113 19.5447 168.992 20.342H174.556ZM183.788 29.208C183.008 29.208 182.367 28.9827 181.864 28.532C181.379 28.064 181.136 27.492 181.136 26.816C181.136 26.1227 181.379 25.542 181.864 25.074C182.367 24.606 183.008 24.372 183.788 24.372C184.551 24.372 185.175 24.606 185.66 25.074C186.163 25.542 186.414 26.1227 186.414 26.816C186.414 27.492 186.163 28.064 185.66 28.532C185.175 28.9827 184.551 29.208 183.788 29.208Z" fill="#0A043C"/>
<path d="M3 20C3 25.5228 7.47715 30 13 30C18.5228 30 23 25.5228 23 20C23 14.4772 18.5228 10 13 10" stroke="#41C8E6" stroke-width="6" stroke-linecap="round" stroke-linejoin="round"/>
<path d="M3 20V39" stroke="#40CD9D" stroke-width="6" stroke-linecap="round" stroke-linejoin="round"/>
</svg>
